<?xml version="1.0" encoding="utf-8"?>
<!-- Svg Vector Icons : http://www.onlinewebfonts.com/icon -->
<!DOCTYPE svg PUBLIC "-//W3C//DTD SVG 1.1//EN" "http://www.w3.org/Graphics/SVG/1.1/DTD/svg11.dtd">
<svg version="1.1" xmlns="http://www.w3.org/2000/svg" xmlns:xlink="http://www.w3.org/1999/xlink" x="0px" y="0px" viewBox="0 0 256 256" enable-background="new 0 0 256 256" xml:space="preserve">
<metadata> Svg Vector Icons : http://www.onlinewebfonts.com/icon </metadata>
<g><g><g><path fill="#000000" d="M119.2,10.1c-15.4,1.3-29.4,5.2-42.7,11.7C63.9,28,55.8,33.6,45.9,43.2c-19.8,19.2-31.3,42-35.3,70.3c-0.8,5.5-0.7,23.7,0,29.3c3.7,26.8,15.2,50.4,33.8,68.8c18.7,18.6,41.8,29.9,69.1,33.8c5.4,0.7,23.1,0.7,28.9,0c22.2-3,42.9-11.7,59.9-25.4c17.7-14.3,30.9-33.4,38.1-55.2c4.1-12.5,5.7-22.6,5.7-36.9c0-14.5-1.4-24-5.7-37c-6.2-18.8-15.6-33.7-30.1-47.8c-18.1-17.6-40-28.4-65.6-32.3C140,10.3,123.8,9.7,119.2,10.1z M139.7,15.2c1.5,1.4,1.6,2.4,0.3,3.5c-1.5,1.3-0.9,1.9,1.8,1.8c2.2-0.1,2.4-0.1,2.4,0.9c0,1.1-1.2,2.7-2,2.7c-1.2,0-4.4,6.9-4.4,9.6c0,0.8-0.3,1.8-0.6,2.1c-0.4,0.3-0.7,1.9-0.9,3.6c-0.3,3.2-1.4,5.3-3,5.5c-1.2,0.2-1.7,2.7-0.8,4c1.3,1.8,0.8,3.6-1.8,6.1c-2.6,2.5-5,3.8-7.3,3.8c-0.8,0-1.6,0.3-1.8,0.6c-0.2,0.3-2.1,1.5-4.1,2.5c-3.6,1.8-5.7,3.7-5.7,4.9c0,0.3-0.3,0.8-0.7,1.2c-0.4,0.3-1.3,1.8-2.1,3.3s-1.5,2.7-1.7,2.7c-0.8,0-2.4-1.5-3.2-2.9c-1.1-2.1-1.6-10.6-0.8-12.3c0.4-0.6,0.6-1.3,0.6-1.5c0-0.2,0.9-1.2,1.9-2.2c1.8-1.8,1.9-2,1.2-2.7c-1.1-1.2-0.9-3,0.5-6c0.9-1.9,1.2-3.6,1.4-6.4c0.2-3.4,0.1-3.9-0.8-4.8c-0.8-0.8-1.3-0.9-2.8-0.7l-1.8,0.3V33c0-1.2,0.3-2.1,0.9-2.6c0.5-0.5,1.1-1.7,1.2-2.6c0.3-1.6,0.5-1.8,2.2-2.3c1-0.3,2.4-0.7,3-0.8c0.8-0.2,1.2-0.8,1.5-1.9c0.2-0.9,0.6-1.7,0.9-1.9c0.3-0.2,0.4-0.5,0.2-0.6c-0.2-0.2-1.1,0.2-2.1,0.9c-0.9,0.6-1.9,1.2-2.1,1.2c-1.2,0-3.7,1.7-4.4,3c-0.5,0.9-1.8,2.1-2.8,2.7c-1,0.6-2.4,2-2.9,3c-1.1,1.9-2.2,2.3-3.1,1.2c-0.3-0.4-1-0.7-1.5-0.7c-0.5,0-1-0.3-1.1-0.7c-0.2-0.4-0.5-0.6-0.7-0.4c-0.6,0.4-0.5-1.6,0.2-2.1c0.3-0.2,1.4-1.2,2.4-2.1l1.8-1.7l-1.5,0.3c-0.8,0.2-1.5,0.1-1.5,0s0.7-1.8,1.6-3.7c1.3-2.8,1.8-3.4,3.1-3.8c4.2-1.3,16.1-3.3,19.9-3.3c2.3,0,2.8,0.6,1.6,1.8c-0.5,0.5-0.2,0.6,1.4,0.4c1.6-0.1,1.9,0,1.9,0.6c0,1.2,0.7,1,1.3-0.4c0.4-0.9,0.6-1.1,1-0.6c0.3,0.5,0.8,0.4,2.9-0.6c3.4-1.7,3.5-1.7,6.6-1.4C137.8,14,138.7,14.4,139.7,15.2z M92.9,20.4c0,0.7,0.3,1.4,0.7,1.6c0.4,0.1,0.7,0.6,0.7,0.9c0,1-2.1,2.3-3,1.9c-0.7-0.3-0.6-0.4,0.3-1.4c0.6-0.6,1-1.3,0.8-1.4c-0.2-0.2-0.9,0.3-1.7,1.2c-1.9,2-2.3,1.8-1.7-0.7c0.4-1.7,0.8-2.3,1.9-2.8C92.8,18.9,92.9,18.9,92.9,20.4z M167,25.2c0.4,0.6,0.3,0.9-0.4,1.4c-3,2.1-2.8,1.8-1.4,4.2c1.1,1.8,1.2,2.2,0.5,2.4c-0.4,0.2-1.1,0-1.6-0.5c-0.8-0.7-0.9-0.7-1.5,0.9c-0.3,0.9-0.7,1.7-0.9,1.7c-1.1,0-1.7-0.6-1.5-1.4c0.2-0.6,0-0.9-0.4-0.9c-0.9,0-2.4-3.7-1.9-4.8c0.2-0.5,0.8-0.7,1.6-0.7c1,0,1.5-0.3,1.9-1.2c0.3-0.6,0.8-1.2,1.1-1.2c0.3,0,0.8-0.3,1.1-0.6C164.2,23.6,166.3,24.1,167,25.2z M80.9,25.5c-0.2,0.5-0.5,1-0.5,1.2c0,0.5,1.7,0.3,2.5-0.3c0.6-0.5,1.3-0.5,2.6-0.1c1,0.2,1.8,0.6,1.8,0.8c0,0.1-0.5,0.9-1,1.6c-0.7,0.9-1,1.8-0.9,3c0.1,1.7-0.8,3.1-1.2,1.8c-0.1-0.4-0.6-1-1-1.4c-0.5-0.5-1-1.7-1.2-2.7c-0.3-2-0.9-2.4-1.4-1c-0.4,1.2-1.3,1.7-4.7,2.3c-3.4,0.6-4.4,0.3-4.3-1.2c0.1-0.8,0.8-1.5,2.8-2.6c1.8-1,2.8-1.2,3-0.9c0.2,0.4,0.7,0.3,1.5-0.3C80.6,24.3,81.5,24.3,80.9,25.5z M91,30.2c-0.1,1.4,0,1.5,1.8,1.8c2.4,0.4,2.6,0.5,2.2,2c-0.6,2.7-4.2,3.3-6.8,1.2c-1.4-1.1-1.5-2.5-0.5-4.1C89.4,28.4,91.1,28,91,30.2z M68.4,31.5c0.6,0.3,0.5,0.6-0.4,1.6c-0.9,0.9-1,1.3-0.6,1.8c0.4,0.5,0.4,0.7,0,0.9c-0.5,0.1-0.5,0.3,0,0.8c0.5,0.5,1.1,0.3,3.1-1.1c2.5-1.7,4-2.1,4-1.2c0,0.3-1.3,2.5-3,5c-2.5,3.7-3,4.8-3,6.4c0,1.7-0.1,2-0.9,2c-0.5,0-1.1,0.2-1.2,0.5c-0.2,0.3-0.7,0.2-1.6-0.2c-1.1-0.6-1.4-0.6-2.2,0c-0.8,0.6-0.8,0.7,0,1.8c1.1,1.6,2.8,2,4.3,1c0.6-0.4,1.2-1,1.2-1.2s1.1-1.3,2.5-2.4c2-1.5,2.6-2.4,3.1-4c0.3-1.1,0.8-2.2,1.1-2.4c0.3-0.2,0.8-0.8,1.1-1.5c0.3-0.6,1.3-1.9,2.2-2.9l1.5-1.8l2.8,0.8l2.8,0.9l-1.1,1c-0.6,0.6-1.4,1-1.8,1c-1.6,0-3.5,2.3-4.5,5.3c-0.6,1.7-1.2,3-1.4,3c-0.9,0-1,1.4-0.2,2.3c0.7,0.8,0.7,1.1,0.3,2.1c-0.9,2-0.1,1.8,2.3-0.5c2.5-2.4,2.8-3.4,1.4-3.8c-1.1-0.3-1.2-0.7-0.2-1.7c0.4-0.4,0.7-1.2,0.7-1.8c0-2.1,5.9-6.8,7.7-6.1c0.4,0.1,0.6,0.5,0.4,0.7c-0.2,0.3,0.1,0.4,0.9,0.2c0.8-0.2,1.6,0,2.4,0.5c1.2,0.7,1.2,0.9,0.9,3.5c-0.3,2.3-0.2,2.8,0.4,3c0.5,0.2,0.7,0.6,0.6,1.2c-0.2,0.6,0,1,0.5,1.2c0.4,0.2,0.9,0.5,1.1,0.8c0.5,0.7-0.1,3.7-0.8,4.1c-0.8,0.5-0.8,2.1,0,2.4c0.4,0.2,0.6,0.7,0.4,1.5c-0.2,0.8,0,1.5,0.5,2c0.7,0.7,0.6,0.9-0.7,2.4c-1.7,2-2.1,2-2.7,0.5c-0.9-2.4-2.3-0.8-1.4,1.6c0.3,1,0.3,1.8,0,2.5C89.8,67,86,68.8,86,67.6c0-0.3-0.9-1.4-1.9-2.7c-1.4-1.6-2.2-2.2-3-2.1c-1.2,0.2-1.8-0.5-1.3-1.7c0.3-1,1.8-1.5,2.5-0.8c0.4,0.4,1.2-0.3,3-2.3c2.1-2.3,2.5-3,2.4-4.1c-0.4-2.6-1.4-4.7-2.5-5.2c-1.1-0.5-2.4-0.3-2.4,0.4c0,0.2-0.4,1.2-0.8,2.2c-0.4,0.9-1.2,3-1.8,4.5l-0.9,2.8l-2.2,0.1c-1.2,0.1-2.2,0.3-2.2,0.6c0,0.2,0.5,1,1.1,1.7c1.3,1.6,0.8,2.6-1.3,2.7c-0.7,0-1.8,0.2-2.4,0.4c-1,0.3-1.1,0.2-0.7-1c0.1-0.7,0.7-2.1,1.2-3.1c0.5-1,0.8-1.8,0.7-1.9c-0.3-0.3-4.3,2.5-5.9,4.2c-0.8,0.9-2.6,2.4-3.9,3.3c-2.7,1.9-4.4,4.6-4.8,7.5c-0.3,2-0.3,2,3,5.3l3.4,3.3l-0.4,2.4c-0.2,1.3-0.2,2.8-0.1,3.1c0.6,1.4,1.8,0.4,2.7-2.3c0.7-2.1,1.4-3,3.2-4.4c3-2.4,3.3-3,2.3-4.7l-0.8-1.4l1.4-1.2c1.1-0.9,1.7-2,2.1-3.7c0.8-3.1,1.2-3.5,3.6-2.9c1.4,0.3,1.9,0.8,2.1,1.6c0.2,0.7,0.6,1.2,1.2,1.2c1.3,0,1.5,1.1,0.5,2.6c-1,1.6-1.2,3.2-0.2,3.6c1,0.4,3.3-1.3,3.9-2.9c1-2.3,1.5-1.2,1.2,2.5c-0.4,3.9-0.1,5.4,1.3,6.8c1.1,1.1,1.3,2.3,1.4,7.5c0.1,3.5,0.1,3.7,1.2,3.8c0.8,0.1,1,0.5,1,1.9c0,2.9-2.5,4-4.1,1.8c-0.4-0.6-1.2-0.9-2-0.9c-1.6,0-1.6,0,1.6-3.9c1-1.2,1.7-2.3,1.5-2.5c-0.1-0.3-1.6,0.3-3.2,1.1c-2.8,1.5-3,1.6-5,1.1c-1.1-0.3-2.4-0.4-2.9-0.2c-0.9,0.3-0.9,0.4,0,1c0.5,0.4,1.1,0.7,1.4,0.8c0.4,0.1,0.3,0.5,0,1.2c-0.6,0.9-0.4,1.1,1.5,2.2c2.5,1.4,2.9,3.1,0.8,3.7c-0.7,0.1-2.2,0.7-3.3,1.2c-1.5,0.7-2.1,0.8-2.5,0.4c-0.3-0.3-1.3-0.5-2.3-0.5c-1.7,0-1.8,0.1-2.9,2.5c-1,2.2-1.3,2.5-2.5,2.5c-1,0-1.7,0.4-2.4,1.5c-1.9,2.6-3.6,5.8-3.6,6.9c0,1.5-0.3,1.8-3.5,4c-3,2-4.3,3.6-4.3,5.1c0,0.5,0.4,1.8,0.9,2.9c1.1,2.4,1.2,5,0.3,5c-0.9,0-2.4-2.3-3.1-4.6c-0.4-1.3-1-2.1-1.6-2.4c-0.6-0.2-1.2-0.6-1.3-0.9c-0.1-0.3-1-0.5-1.8-0.5c-1.2,0-1.8,0.3-2.3,1.1c-0.6,1-0.9,1.1-4.1,0.9c-4.3-0.2-5.4,0.5-6.5,4.4c-1.7,6-0.6,10.4,2.8,11.6c2.7,1,4.3,0.4,5.1-1.8c0.6-1.4,1-1.8,2.5-2.2l1.8-0.5v1.7c0,0.9-0.4,2.3-0.9,3c-1.8,2.7-1.2,3.3,3.2,3.6l2.1,0.1l0.2,3.3c0.3,4.6,0.7,4.9,5.8,5l3.9,0.1l1.9-2.1c1.9-2.1,2-2.1,3.6-1.6c0.9,0.3,2,0.6,2.4,0.6c0.4,0,1.1,0.5,1.5,1c0.6,0.9,1,1,3.8,0.7c2.1-0.1,3.3-0.5,3.7-1c0.6-0.8,1.2-0.5,1.2,0.7c0,2.1,5.2,6,7.9,6c1.7,0,5.3,3.3,5.6,5.2c0.3,1.4,0.7,1.7,4.4,3.5c2.6,1.2,4.8,2,5.9,2c3.2,0,8.9,3.7,8.9,5.7c0,0.4-0.4,1.6-0.9,2.8c-0.7,1.6-1.1,3.8-1.4,9.1c-0.5,7.5-0.8,8.2-3,8.2c-0.6,0-1.4,0.4-1.8,0.9c-0.5,0.5-1.2,1-1.7,1.2c-1,0.3-1.7,2.3-1,3.1c0.6,0.7-0.4,6.2-1.2,6.7c-0.4,0.3-0.5,0.7-0.1,1.6c0.4,1,0.3,1.3-0.7,2.1c-0.6,0.5-1.4,1-1.7,1.1c-0.4,0.1-0.4,0.5,0,1.2c1.1,2,0.2,4.8-1.6,4.8c-0.6,0-0.7,0.3-0.6,1.2c0.2,0.9,0,1.2-0.6,1.2c-1.2,0-1.1,1.2,0.3,1.8c1.2,0.5,1.4,1.1,0.9,1.6c-0.1,0.1-0.4,1.3-0.5,2.6c-0.2,2.1,0,2.4,0.9,3c0.9,0.6,1.2,1.3,1.5,3.3c0.2,2,0.7,3,2.1,4.8c2,2.5,1.8,2.6-1.8,1.6c-2-0.6-2.7-1.1-4-3c-0.9-1.3-1.8-2.3-2-2.3c-0.2,0-0.5-0.4-0.7-0.9c-0.1-0.5-0.9-1.7-1.6-2.6c-1-1.2-1.3-2-1.1-2.8c0.2-0.8,0-1.2-1.1-1.8c-1.3-0.7-2.7-3.2-2.1-4c0.3-0.5-0.9-2.9-2.2-4.5c-0.6-0.7-0.9-1.8-0.9-3.3c0-1.6-0.5-3-1.6-5.4c-0.9-1.7-2-5-2.6-7.3c-1.9-8.3-3.5-10.8-8.6-13.7c-3.3-1.9-6-4.3-7.5-6.7c-0.7-1-2-2.6-3-3.4c-1.7-1.5-1.8-1.7-1.5-3.7c0.2-1.4,0-2.9-0.4-4.2c-0.7-1.9-0.7-2.1,0.5-3.8c1.8-2.7,2.1-3.8,1.6-5.6c-0.4-1.5-2.4-4-3.2-4c-0.2,0-0.4,0.4-0.4,0.9c0,0.9-0.3,0.8-3.5-0.8c-2.6-1.3-3.9-2.3-5.2-4c-1.4-1.8-2.3-2.5-4.9-3.6c-1.8-0.7-4.6-1.7-6.1-2c-4.4-1-6.9-1.9-9.3-3.5c-1.8-1.2-2.2-1.6-2.5-3.2c-0.1-1-1.2-3.3-2.4-5.2c-1.2-1.9-2.9-4.7-3.9-6.4c-3.2-5.5-3.3-3.5-0.1,4c1.4,3.3,1.4,4.6,0,3c-1.5-1.7-3.7-5.9-3.7-7c0-0.6-0.1-1.3-0.3-1.6c-1.7-2-1.4-9.8,0.9-21.2C19.3,87.7,27.1,71,38.3,56.8c3.2-4,11.6-12.8,13.5-14.2l1.2-0.9l0.7,1.6c0.7,1.6,2.2,2.8,3.2,2.4c0.3-0.1,0.5-0.8,0.4-1.8c-0.1-1.3,0.1-1.8,1-2.4c1.2-0.8,2-3.8,1.2-4.7c-0.3-0.3,0.8-1.3,3.4-3.1C67,31,67.3,30.8,68.4,31.5z M192.9,33.6c0.9,0.6,0.9,0.7,0.1,2.4c-0.6,1.4-0.7,2.4-0.5,4.5c0.6,4.5,3.1,6.4,9.7,7.4c2.5,0.4,2.8-0.2,1-2.8c-0.6-0.9-1.2-2.3-1.2-3.1c0-1.4,0-1.4,1.1-0.5c3.3,2.8,6.6,6.2,7.3,7.8c0.5,1.1,0.9,1.5,0.9,1c0-0.7,0.1-0.7,0.7-0.3c0.4,0.3,0.7,0.9,0.7,1.2c0,0.4,0.2,0.6,0.4,0.6c0.6-0.2,6.1,6.5,9.7,11.9c12.3,18.1,18.8,38,19.8,60.1c0.3,7.1-0.4,17.9-1.2,20.9l-0.3,1.3l-0.3-1.2c-0.1-0.6-0.3-1.5-0.2-1.8c0-0.4-0.5-1.8-1-3.2c-0.6-1.4-1.4-3.3-1.8-4.3c-0.7-1.8-1.7-2.6-3.3-2.6c-0.6,0-1-0.3-1-0.9c0-1.3-1.6-3-4.2-4.4c-2.2-1.2-2.9-1.3-6.5-1.2c-3,0.1-4.2-0.1-4.5-0.6c-0.3-0.4-1.4-0.6-2.8-0.6c-2.6,0-5-0.9-6.2-2.4c-0.5-0.5-1.2-1-1.5-1c-1.2,0,0.3,2.8,2.2,4c1,0.6,1.8,1.5,1.8,1.8c0,1,1.1,1.2,2.9,0.4c2.4-1,3-0.9,3.8,0.7c0.4,0.8,1.2,1.6,1.8,1.8c2.4,0.9,0.6,5.4-3.6,8.3c-3.4,2.5-9.8,5.9-11.5,6.2c-0.9,0.2-2,0.6-2.5,0.9c-0.6,0.5-0.7,0.7-0.1,1.6c0.6,0.8,0.9,1,2,0.7c0.8-0.2,2.2-0.4,3.1-0.4c0.9,0,2.1-0.5,2.5-0.9c2.2-1.9,2,1.9-0.3,5.3c-3.8,5.8-4.6,6.8-8.5,11c-2.2,2.4-4.2,4.8-4.4,5.5c-0.1,0.7,0,2.7,0.2,4.4c0.7,4.2,0.7,6.6-0.1,8.1c-0.4,0.7-2,2.5-3.7,4.1c-2.6,2.4-3,3-2.8,3.9c0.9,2.9,0.8,3.3-1.1,5.2c-1.1,1-1.9,2.2-1.9,2.7c0,1.1-4.3,6.9-5.9,8.1c-1.8,1.2-5.5,2.4-7.5,2.4c-1.9,0-2.7-0.9-2.7-2.9c0-0.6-0.6-2.2-1.2-3.6c-0.6-1.4-1.6-4.3-2.1-6.5c-0.5-2.2-1.3-4.9-1.8-6.1c-1.2-2.7-1-6.1,0.6-8.2c0.9-1.2,1-1.7,0.5-2.6c-0.3-0.6-0.4-1.9-0.2-2.9c0.3-1.6,0.1-2-2.1-4.7c-2.6-3.2-3.5-5.4-2.8-7.2c0.5-1.3,0.6-3.4,0.1-4.5c-0.2-0.5-0.8-0.7-1.9-0.7c-0.9,0-2.5-0.6-3.7-1.2l-2-1.2l-1.7,1.1c-1.5,0.9-2.4,1.1-6.9,1.2l-5.2,0.1l-1.1-1.3c-0.6-0.7-1.6-1.4-2.2-1.5c-0.8-0.1-1.4-0.7-2-2c-0.5-1-1.6-2.4-2.4-3c-1.9-1.3-2.4-3-2.1-7.6c0.1-2,0-4.4-0.3-5.4c-0.4-1.5-0.2-2,1.5-5.3c1.3-2.5,2.4-4.1,3.8-5c1.3-0.9,2-1.8,2.2-2.8c0.2-0.8,1.2-2.6,2.4-4.1c2.5-3.2,2.7-4.8,0.8-6.2c-2.6-1.9-2.6-1.9-2.3-4.3c0.2-1.2,0.6-3,1.1-3.9c0.8-1.7,0.9-1.7,4-2c2.4-0.2,3.4-0.5,3.8-1.1c1.2-1.6,0.8-2.9-1.2-4.2c-2.2-1.5-2.4-2-0.4-2c1.3,0,2.9-1,5.2-3.1c0.5-0.5,0.8-1.2,0.6-1.8c-0.1-0.8,0.1-1.2,1-1.7c0.7-0.3,2.2-1.7,3.4-3c1.9-2,2.2-2.5,2.2-4.4c0-1.2,0.2-2.2,0.5-2.4c0.3-0.2,0.5,0.5,0.5,1.6c0,1.3,0.3,2.2,0.9,2.8c1.1,1.1,1.3,1.1,5.6,0.2c3.9-0.8,5-1.8,5-4.1c0-1.3,0.2-1.6,1.3-1.7c1-0.1,1.2-0.4,1.1-1.1c-0.5-2.8-0.5-2.8,1.9-2.8c2.3,0,3.7-0.7,2.8-1.6c-0.2-0.2-1.8-0.6-3.3-0.7c-5-0.6-6.1-2.3-4.2-6.7c1.1-2.5,1-3.8-0.1-4.1c-0.8-0.1-3,3.9-4.1,7.6c-0.5,1.7-0.5,2.1,0.4,3.5c1.2,1.9,1.2,2.5,0.2,3.7c-0.4,0.5-1.1,1.8-1.5,3c-0.6,1.9-0.9,2.2-2.2,2.3c-1.2,0.1-1.5,0-1.2-0.6c0.3-0.8-1.5-5.3-2.1-5.3c-0.2,0-0.6,0.3-0.9,0.7c-0.9,1-2.1,1.6-2.9,1.3c-0.9-0.3-2.2-3.5-2.2-5.5c0-1.7,0.6-2.4,3.2-4.1c1-0.6,2.1-1.9,2.8-3.5c1.1-2.2,1.5-3.7,2.5-8.6c0.4-2.2,6.2-6.4,8.9-6.6c2.6-0.2,3.8,0.2,3.8,1.2c0,1,1.6,1.7,4.6,2.1c2.9,0.4,4,1.2,5.3,3.9c1.4,2.7,2.9,3.2,2.3,0.8c-0.6-2.7-0.5-4.2,0.3-4.4c0.6-0.1,1,0.3,1.3,1c0.6,1.6,1.1,1.5,3.4-0.6c1.4-1.3,2.1-1.7,2.4-1.3c0.4,0.4,0.8,0.4,1.4,0c0.5-0.3,1.4-0.5,1.9-0.5c0.8,0,1-0.2,0.8-1.3c-0.1-1.2-0.2-1.2-2.8-1.2c-1.5,0-2.9-0.2-3.2-0.6c-0.3-0.3-1.1-0.6-1.7-0.6c-1.3,0-2.2-1.9-1.8-4.2c0.1-0.9,0-2.9-0.2-4.3c-0.4-2.3-0.3-3,0.4-4.5C191.2,32.8,191.5,32.6,192.9,33.6z M134.2,61.7l3.2,0l0,1.8c-0.1,3.2-2.6,4.8-6,4c-1.9-0.5-2-0.6-2.5-2.8c-0.6-2.8-0.3-3.8,1.1-3.4C130.5,61.5,132.5,61.7,134.2,61.7z M147.3,78.6c0.3,1,0.4,1.5,0,1.8c-0.4,0.4,0,1.1,1,2.5c0.8,1.1,1.5,2.2,1.5,2.4s0.4,0.8,0.8,1.4c0.9,1.2,1,3.7,0.2,3.7c-0.3,0-1,0.1-1.5,0.1c-0.5,0-1.6,0.8-2.5,1.7c-2.4,2.4-2.8,2.2-2.4-1.5c0.2-2.1,0.6-3.4,1.2-4.1c1.2-1.3,1.2-1.9-0.5-3.3c-1.6-1.3-1.8-3.4-0.6-5.1C145.4,76.8,146.6,77,147.3,78.6z M143.3,83.8c0.2,2.6-0.2,4.4-1.2,5.5c-1.7,1.7-2.7,0.9-2.8-2.2c0-2.3,0-2.4,1.6-3C143,83.1,143.3,83.1,143.3,83.8z M58.9,129.7c-0.2,0.4-0.5,0.7-0.7,0.7c-0.2,0-0.4-0.3-0.4-0.7s0.3-0.7,0.7-0.7C58.9,129,59,129.3,58.9,129.7z M58.1,133.7c-0.1,0.3-0.2,0.1-0.2-0.6c0-0.6,0.1-0.9,0.2-0.6C58.2,132.9,58.2,133.4,58.1,133.7z M61.5,134c0.7,1.8,0.2,1.7-0.9-0.1c-0.7-1.2-0.8-1.6-0.3-1.3C60.8,132.7,61.3,133.3,61.5,134z M57.4,136.5c1.6,0.8,3.5,1.7,4.1,2c2.1,0.8,1.7,1.6-0.8,1.6c-1.7,0-2.4-0.2-3.1-1c-1.4-1.5-3.2-2.3-5.5-2.3c-2.4,0-2.4-0.6-0.1-1.3C54.1,134.9,54.2,134.9,57.4,136.5z M69,141.1l1,1.1l-2.3,0.3c-3.4,0.4-4.5,0.4-5.3-0.1c-0.6-0.4-0.6-0.6,0.4-1.4C64.3,139.7,67.6,139.8,69,141.1z M73.3,141.9c0.1,0.2,0.1,0.5-0.1,0.5c-0.2,0-0.9,0.1-1.5,0.3c-1.1,0.2-1.1,0.2-0.3-0.5C72.4,141.3,72.8,141.3,73.3,141.9z M59.6,142.8c0,0.5-1.2,1-1.6,0.6c-0.6-0.6-0.2-1.1,0.6-1.1C59.2,142.4,59.6,142.6,59.6,142.8z M78.6,145.2c0,0.8-0.1,0.9-0.7,0.4c-0.7-0.6-0.6-1.4,0.3-1.4C78.4,144.2,78.6,144.7,78.6,145.2z M116.2,172.7c0.1,0.4,0,0.7-0.4,0.7c-0.4,0-0.7-0.3-0.7-0.7s0.2-0.7,0.4-0.7C115.7,172,116,172.3,116.2,172.7z M208.2,180.1c-0.3,2.4-4,12.7-5,14c-0.8,0.9-2.7,0.5-3.7-0.9c-0.9-1.2-0.9-1.2,0-2.8c0.5-0.8,1.3-2.5,1.8-3.7c0.5-1.3,1.1-2.2,1.6-2.2c0.7,0,2.6-2.4,4.4-5.4c0.5-0.8,1-1.5,1.1-1.5C208.4,177.5,208.4,178.7,208.2,180.1z M108,235c-0.9,0.6-1.7,0.6-1.7-0.3c0-0.2,0.6-0.4,1.3-0.4C108.8,234.4,108.8,234.4,108,235z"/><path fill="#000000" d="M99.2,22.9c-0.1,0.4,0,0.9,0.3,1.2c0.5,0.4,0.7,0.3,0.8-0.6C100.7,22.2,99.6,21.8,99.2,22.9z"/><path fill="#000000" d="M44.8,50.9c0,1.2,0.2,1.4,1.1,1.4c1.5,0,1.8-0.4,0.9-1.7C45.8,49.1,44.8,49.2,44.8,50.9z"/><path fill="#000000" d="M54.4,95.5c-0.6,0.5-0.7,0.7-0.2,0.9c0.7,0.2,1.7-0.5,1.7-1.2C55.9,94.6,55.4,94.8,54.4,95.5z"/><path fill="#000000" d="M51.7,95.6c-0.5,0.1-0.8,0.4-0.8,0.6c0,0.6,0.7,0.5,1.4-0.3c0.3-0.4,0.5-0.6,0.4-0.6C52.6,95.4,52.1,95.5,51.7,95.6z"/><path fill="#000000" d="M57.3,98.4c-0.1,1,0.2,3.2,0.5,3.5c0.6,0.6,1.3-0.6,1.5-2.2c0.1-1.2,0-1.4-0.9-1.5C57.8,98,57.3,98.1,57.3,98.4z"/><path fill="#000000" d="M52.2,102.5c-0.3,0.6-0.5,1.6-0.5,2.1c0,1.6,1.2,0.1,1.5-1.7C53.5,101,52.9,100.8,52.2,102.5z"/><path fill="#000000" d="M183,58.9c-0.9,0.2-1.8,0.7-1.9,1c-0.6,0.8,0,3.2,1.1,4.2c1.1,1.2,1.7,0.6,0.9-0.9c-0.5-0.9-0.5-1.3-0.1-1.7c0.4-0.4,0.7-0.4,1.1,0c0.4,0.4,0.6,0.2,1.2-0.7C186.4,58.4,186,58,183,58.9z"/><path fill="#000000" d="M188.3,96.1c-0.2,0.4,0,1.1,0.4,1.5c0.9,1,0.9,1.5-0.1,2.4c-1.1,1-3.1,1-3.7,0c-0.6-0.9-1.6-0.5-3,1.4c-0.7,0.9-0.8,1.4-0.4,2.1c0.4,0.8,0.7,0.9,1.8,0.6c0.7-0.2,1.8-0.6,2.4-0.9c0.8-0.5,1.4-0.4,3.2,0.4c3.8,1.6,6.5,1.2,6.5-1.2c0-0.7-0.5-1.2-1.4-1.6c-2.2-0.9-3.6-2.2-3.9-3.7C189.8,95.6,188.8,95,188.3,96.1z"/><path fill="#000000" d="M164.5,101.2c0.6,1.2,1.9,2.2,3.9,3c3.1,1.3,1.5-1.2-1.9-2.9C164.1,100.1,163.9,100.1,164.5,101.2z"/><path fill="#000000" d="M159.4,104.6c0,0.3-0.9,0.5-2.6,0.3c-2.5-0.1-2.7-0.1-4.4,1.7c-1,1-1.9,2.6-2.2,3.5c-0.5,1.9-1.6,3-4.1,4.2c-1,0.5-1.4,0.8-0.9,0.8c0.5,0,2.1-0.6,3.7-1.4c2.6-1.3,3.4-1.5,8.1-1.7c3.7-0.1,5.4,0,5.8,0.3c0.3,0.3,0.6,1.6,0.6,3v2.4l1.6,0.1c0.9,0.1,2.1,0.6,2.8,1.2c1.7,1.6,3.4,2.6,4.2,2.6c0.6,0,0.7-0.4,0.6-1.8c-0.1-1.3,0-1.9,0.5-2.1c0.4-0.1,2.7,0.3,5.1,0.9c5.3,1.4,6.7,1.5,9.1,0.3c2.9-1.5,3.7-2.5,3.7-4.9c0-1.2-0.1-2.1-0.2-2.1c-0.1,0-1.2,0.4-2.6,0.9c-3,1.2-5,0.9-7.5-1.1c-1.2-1-1.9-2-2.3-3.4c-0.6-2.1-1-2.4-2.4-1.4c-0.8,0.6-0.8,0.7-0.1,1.3c2.2,1.8,2.5,2.2,2.3,3.1c-0.2,0.8-0.6,1-2.3,1c-1.1,0-2-0.2-2-0.5c0-0.7-2.8-3.7-3.5-3.7c-0.4,0-0.6,0.4-0.6,0.8c0,1.3-2.4,4.3-3.4,4.3c-2.2,0-3-2.4-1-3c0.9-0.2,1.2-0.6,1.2-1.7s-0.3-1.5-1.5-2.1c-0.8-0.4-2-1.2-2.6-1.6C161,104,159.4,103.8,159.4,104.6z M160.8,107.6c0,1.8-0.6,2.3-1.6,1.3c-0.9-0.8-0.9-1.8-0.2-3C159.7,104.5,160.8,105.6,160.8,107.6z"/><path fill="#000000" d="M190.1,125c-0.3,1.3,0.7,3.8,2.5,6.1c0.7,1,1.9,3.3,2.6,5.2c1.8,4.9,5.8,8.9,5.8,5.8c0-1.5-1.1-4-2.5-5.9c-0.6-0.9-1.4-2.2-1.7-3c-0.3-0.8-1.2-2.5-2.1-3.8c-0.9-1.2-1.6-2.6-1.6-2.9c0-0.6-1.9-2.6-2.4-2.6C190.5,123.9,190.3,124.4,190.1,125z"/></g></g></g>
</svg>